<?xml version="1.0" encoding="UTF-8"?>
<!DOCTYPE svg PUBLIC "-//W3C//DTD SVG 1.1//EN" "http://www.w3.org/Graphics/SVG/1.1/DTD/svg11.dtd">
<svg xmlns="http://www.w3.org/2000/svg" version="1.1" width="512px" height="512px" style="shape-rendering:geometricPrecision; text-rendering:geometricPrecision; image-rendering:optimizeQuality; fill-rule:evenodd; clip-rule:evenodd" xmlns:xlink="http://www.w3.org/1999/xlink">
<g><path style="opacity:0.907" fill="#fefffe" d="M 110.5,211.5 C 117.841,211.334 125.174,211.5 132.5,212C 139.162,212.663 142.162,216.329 141.5,223C 138.52,244.525 135.354,266.025 132,287.5C 130.771,292.814 127.605,296.314 122.5,298C 114.167,298.667 105.833,298.667 97.5,298C 92.3586,297.192 89.6919,294.192 89.5,289C 92.7193,266.132 96.2193,243.299 100,220.5C 101.884,215.439 105.384,212.439 110.5,211.5 Z M 118.5,227.5 C 119.5,227.5 120.5,227.5 121.5,227.5C 119.048,244.497 116.548,261.497 114,278.5C 113.902,280.619 113.069,282.286 111.5,283.5C 110.345,280.554 110.179,277.554 111,274.5C 113.18,258.735 115.68,243.068 118.5,227.5 Z"/></g>
<g><path style="opacity:0.909" fill="#fefffe" d="M 195.5,211.5 C 204.235,211.124 212.902,211.624 221.5,213C 224.628,215.124 226.294,218.124 226.5,222C 223.334,242.825 220.168,263.658 217,284.5C 216.658,290.026 214.158,294.193 209.5,297C 200.242,298.584 190.909,298.917 181.5,298C 176.311,296.466 173.977,292.966 174.5,287.5C 176.783,269.803 179.283,252.137 182,234.5C 182.587,228.637 183.92,222.97 186,217.5C 188.551,214.319 191.718,212.319 195.5,211.5 Z M 202.5,227.5 C 203.5,227.5 204.5,227.5 205.5,227.5C 203.515,245.559 201.015,263.559 198,281.5C 195.888,284.102 194.721,283.602 194.5,280C 197.215,262.495 199.882,244.995 202.5,227.5 Z"/></g>
<g><path style="opacity:0.9" fill="#fefffe" d="M 38.5,212.5 C 46.5,212.5 54.5,212.5 62.5,212.5C 61.8485,225.498 61.6818,238.498 62,251.5C 65.8144,238.561 69.3144,225.561 72.5,212.5C 80.5,212.5 88.5,212.5 96.5,212.5C 92.1667,241.167 87.8333,269.833 83.5,298.5C 77.8333,298.5 72.1667,298.5 66.5,298.5C 67.9065,287.162 69.0732,275.829 70,264.5C 66.8443,275.456 63.8443,286.456 61,297.5C 57.27,298.46 53.4367,298.793 49.5,298.5C 49.6665,286.829 49.4999,275.162 49,263.5C 47.4266,274.847 45.7599,286.181 44,297.5C 38.2588,298.475 32.4254,298.808 26.5,298.5C 30.5933,269.847 34.5933,241.18 38.5,212.5 Z"/></g>
<g><path style="opacity:0.901" fill="#fefffe" d="M 145.5,212.5 C 158.184,212.168 170.851,212.501 183.5,213.5C 182.368,218.091 181.701,222.758 181.5,227.5C 178.167,227.5 174.833,227.5 171.5,227.5C 168.275,251.182 164.942,274.848 161.5,298.5C 155.167,298.5 148.833,298.5 142.5,298.5C 145.46,274.779 148.794,251.112 152.5,227.5C 149.5,227.5 146.5,227.5 143.5,227.5C 144.167,222.5 144.833,217.5 145.5,212.5 Z"/></g>
<g><path style="opacity:0.908" fill="#fefffe" d="M 232.5,212.5 C 243.505,212.333 254.505,212.5 265.5,213C 270.757,214.15 273.424,217.483 273.5,223C 272.333,230.499 271.167,237.999 270,245.5C 269.08,250.188 266.58,253.688 262.5,256C 265.857,258.693 267.191,262.193 266.5,266.5C 265.259,277.185 263.926,287.852 262.5,298.5C 256.167,298.5 249.833,298.5 243.5,298.5C 244.234,288.263 245.567,278.096 247.5,268C 247.562,265.035 246.395,264.202 244,265.5C 242.281,276.48 240.781,287.48 239.5,298.5C 232.8,298.83 226.134,298.497 219.5,297.5C 224.112,269.214 228.446,240.881 232.5,212.5 Z M 249.5,227.5 C 250.833,227.5 252.167,227.5 253.5,227.5C 252.715,232.827 251.882,238.161 251,243.5C 250.818,246.881 249.318,247.881 246.5,246.5C 247.965,240.247 248.965,233.913 249.5,227.5 Z"/></g>
<g><path style="opacity:0.899" fill="#fefffe" d="M 276.5,212.5 C 289.167,212.5 301.833,212.5 314.5,212.5C 314.02,217.53 313.353,222.53 312.5,227.5C 308.97,226.989 305.804,227.656 303,229.5C 299.824,252.235 296.324,274.901 292.5,297.5C 286.202,298.496 279.868,298.83 273.5,298.5C 277.02,274.86 280.353,251.193 283.5,227.5C 280.482,227.665 277.482,227.498 274.5,227C 275.768,222.287 276.435,217.454 276.5,212.5 Z"/></g>
<g><path style="opacity:0.907" fill="#fefffe" d="M 316.5,212.5 C 327.838,212.333 339.172,212.5 350.5,213C 353.573,213.739 355.74,215.572 357,218.5C 357.317,228.284 356.317,237.95 354,247.5C 352.998,251.68 350.498,254.514 346.5,256C 349.87,258.239 351.537,261.405 351.5,265.5C 350.14,275.854 348.64,286.187 347,296.5C 340.789,298.434 334.289,299.101 327.5,298.5C 328.752,287.9 330.419,277.4 332.5,267C 331.692,265.294 330.359,264.461 328.5,264.5C 327.157,275.557 325.49,286.557 323.5,297.5C 317.202,298.496 310.868,298.83 304.5,298.5C 308.717,269.862 312.717,241.195 316.5,212.5 Z M 334.5,227.5 C 335.5,227.5 336.5,227.5 337.5,227.5C 337.103,233.882 336.27,240.215 335,246.5C 333.989,247.337 332.822,247.67 331.5,247.5C 332.285,240.789 333.285,234.123 334.5,227.5 Z"/></g>
<g><path style="opacity:0.897" fill="#fefffe" d="M 363.5,212.5 C 373.5,212.5 383.5,212.5 393.5,212.5C 392.725,217.484 392.058,222.484 391.5,227.5C 387.833,227.5 384.167,227.5 380.5,227.5C 379.833,232.833 379.167,238.167 378.5,243.5C 381.833,243.5 385.167,243.5 388.5,243.5C 388.299,248.242 387.632,252.909 386.5,257.5C 382.893,258.489 379.226,258.823 375.5,258.5C 374.935,266.558 373.935,274.558 372.5,282.5C 375.833,282.5 379.167,282.5 382.5,282.5C 382.362,287.775 381.695,292.941 380.5,298C 370.839,298.5 361.172,298.666 351.5,298.5C 355.032,269.773 359.032,241.106 363.5,212.5 Z"/></g>
<g><path style="opacity:0.899" fill="#fefffe" d="M 396.5,212.5 C 402.5,212.5 408.5,212.5 414.5,212.5C 414.941,223.87 415.774,235.203 417,246.5C 418.667,235.5 420.333,224.5 422,213.5C 427.407,212.527 432.907,212.193 438.5,212.5C 434.717,241.195 430.717,269.862 426.5,298.5C 420.5,298.5 414.5,298.5 408.5,298.5C 407.778,286.499 406.944,274.499 406,262.5C 404.491,274.234 402.657,285.901 400.5,297.5C 395.208,298.495 389.875,298.828 384.5,298.5C 388.033,269.77 392.033,241.103 396.5,212.5 Z"/></g>
<g><path style="opacity:0.908" fill="#fefffe" d="M 443.5,212.5 C 454.838,212.333 466.172,212.5 477.5,213C 482.315,214.318 484.648,217.484 484.5,222.5C 481.38,243.503 478.214,264.503 475,285.5C 474.459,291.1 471.626,294.934 466.5,297C 454.529,298.699 442.529,298.866 430.5,297.5C 434.941,269.188 439.274,240.854 443.5,212.5 Z M 460.5,227.5 C 462.103,227.312 463.437,227.812 464.5,229C 461.579,246.442 458.746,263.942 456,281.5C 454.989,282.337 453.822,282.67 452.5,282.5C 455.275,264.186 457.941,245.852 460.5,227.5 Z"/></g>
</svg>
